<?xml version="1.0" standalone="no"?>
<!DOCTYPE svg PUBLIC "-//W3C//DTD SVG 20010904//EN"
 "http://www.w3.org/TR/2001/REC-SVG-20010904/DTD/svg10.dtd">
<svg version="1.0" xmlns="http://www.w3.org/2000/svg"
 width="512.000000pt" height="512.000000pt" viewBox="0 0 512.000000 512.000000"
 preserveAspectRatio="xMidYMid meet">
<metadata>
Created by potrace 1.15, written by Peter Selinger 2001-2017
</metadata>
<g transform="translate(0.000000,512.000000) scale(0.100000,-0.100000)"
fill="#000000" stroke="none">
<path d="M1535 4310 c-434 -160 -801 -295 -813 -302 -18 -10 -579 -762 -699
-937 -41 -60 -26 -157 30 -194 13 -8 122 -41 243 -72 120 -31 254 -65 297 -77
l77 -20 0 -727 c0 -701 1 -727 20 -758 10 -17 27 -36 38 -42 35 -19 2149 -661
2176 -661 35 0 6 -16 841 447 402 223 744 418 760 434 l30 29 3 738 3 737 271
130 c298 142 308 150 308 233 0 24 -5 53 -12 65 -6 12 -157 230 -336 485 -325
464 -348 492 -405 492 -13 0 -468 65 -1010 145 -543 80 -998 145 -1010 145
-12 -1 -377 -131 -812 -290z m1600 -96 c396 -57 724 -106 728 -107 14 -4 -966
-457 -989 -457 -33 -1 -1574 285 -1561 289 6 2 248 91 535 196 288 106 533
190 545 188 12 -2 346 -51 742 -109z m1417 -555 l236 -336 -671 -322 c-369
-177 -674 -318 -679 -313 -9 9 -357 746 -354 749 11 12 1223 569 1227 564 3
-3 112 -157 241 -342z m-2785 -84 c493 -91 898 -167 900 -168 5 -5 -527 -797
-535 -796 -32 2 -1762 456 -1763 462 -3 14 475 666 488 666 7 1 416 -73 910
-164z m999 -2732 c-2 -3 -415 121 -918 275 l-913 279 -3 622 c-2 590 -1 622
15 617 10 -2 292 -75 627 -161 640 -165 663 -169 708 -128 11 10 124 172 252
361 l231 343 3 -1102 c1 -606 0 -1104 -2 -1106z m398 1782 c116 -247 126 -260
209 -260 47 1 95 21 462 199 226 109 416 200 423 203 10 4 12 -116 10 -597
l-3 -602 -610 -339 c-335 -186 -613 -339 -617 -339 -5 0 -8 453 -7 1008 0 888
2 1003 15 977 8 -16 61 -129 118 -250z"/>
</g>
</svg>
