<?xml version="1.0" encoding="UTF-8"?>
<svg xmlns="http://www.w3.org/2000/svg" xmlns:xlink="http://www.w3.org/1999/xlink" width="16pt" height="16pt" viewBox="0 0 16 16" version="1.1">
<g id="surface1">
<path style=" stroke:none;fill-rule:nonzero;fill:rgb(3.921569%,51.764706%,0%);fill-opacity:1;" d="M 4.796875 2.53125 C 3.441406 3.03125 2.292969 3.453125 2.257812 3.476562 C 2.199219 3.507812 0.445312 5.855469 0.0703125 6.402344 C -0.0546875 6.589844 -0.0078125 6.894531 0.164062 7.007812 C 0.207031 7.035156 0.546875 7.136719 0.925781 7.234375 C 1.300781 7.332031 1.71875 7.4375 1.851562 7.476562 L 2.09375 7.539062 L 2.09375 9.808594 C 2.09375 12 2.097656 12.082031 2.15625 12.179688 C 2.1875 12.230469 2.242188 12.289062 2.273438 12.308594 C 2.382812 12.367188 8.992188 14.375 9.074219 14.375 C 9.183594 14.375 9.09375 14.425781 11.703125 12.976562 C 12.960938 12.28125 14.027344 11.671875 14.078125 11.621094 L 14.171875 11.53125 L 14.179688 9.226562 L 14.191406 6.921875 L 15.039062 6.515625 C 15.96875 6.070312 16 6.046875 16 5.789062 C 16 5.710938 15.984375 5.621094 15.960938 5.585938 C 15.945312 5.546875 15.472656 4.867188 14.914062 4.070312 C 13.898438 2.617188 13.824219 2.53125 13.648438 2.53125 C 13.605469 2.53125 12.183594 2.328125 10.492188 2.078125 C 8.792969 1.828125 7.371094 1.625 7.335938 1.625 C 7.296875 1.628906 6.15625 2.035156 4.796875 2.53125 Z M 9.796875 2.832031 C 11.035156 3.007812 12.058594 3.164062 12.070312 3.164062 C 12.117188 3.179688 9.054688 4.59375 8.980469 4.59375 C 8.878906 4.597656 4.0625 3.703125 4.101562 3.691406 C 4.121094 3.683594 4.878906 3.40625 5.773438 3.078125 C 6.675781 2.746094 7.441406 2.484375 7.476562 2.492188 C 7.515625 2.496094 8.558594 2.648438 9.796875 2.832031 Z M 14.226562 4.566406 L 14.960938 5.617188 L 12.867188 6.621094 C 11.710938 7.175781 10.757812 7.617188 10.742188 7.601562 C 10.714844 7.570312 9.628906 5.269531 9.636719 5.257812 C 9.671875 5.222656 13.460938 3.480469 13.472656 3.496094 C 13.480469 3.507812 13.820312 3.988281 14.226562 4.566406 Z M 5.523438 4.828125 C 7.0625 5.113281 8.328125 5.351562 8.335938 5.351562 C 8.351562 5.367188 6.6875 7.84375 6.664062 7.839844 C 6.5625 7.835938 1.15625 6.414062 1.152344 6.398438 C 1.144531 6.351562 2.636719 4.316406 2.679688 4.316406 C 2.699219 4.3125 3.976562 4.542969 5.523438 4.828125 Z M 8.644531 13.367188 C 8.636719 13.375 7.347656 12.988281 5.773438 12.507812 L 2.921875 11.632812 L 2.914062 9.691406 C 2.90625 7.847656 2.910156 7.746094 2.960938 7.761719 C 2.992188 7.769531 3.871094 7.996094 4.917969 8.265625 C 6.917969 8.78125 6.992188 8.792969 7.132812 8.664062 C 7.164062 8.632812 7.519531 8.128906 7.917969 7.539062 L 8.640625 6.464844 L 8.648438 9.910156 C 8.652344 11.804688 8.648438 13.359375 8.644531 13.367188 Z M 9.886719 7.796875 C 10.25 8.570312 10.28125 8.609375 10.539062 8.609375 C 10.6875 8.605469 10.835938 8.542969 11.984375 7.988281 C 12.691406 7.648438 13.285156 7.363281 13.304688 7.351562 C 13.335938 7.339844 13.34375 7.714844 13.335938 9.21875 L 13.328125 11.101562 L 11.421875 12.160156 C 10.375 12.742188 9.507812 13.21875 9.492188 13.21875 C 9.476562 13.21875 9.46875 11.804688 9.472656 10.070312 C 9.472656 7.292969 9.476562 6.933594 9.519531 7.015625 C 9.542969 7.066406 9.710938 7.417969 9.886719 7.796875 Z M 9.886719 7.796875 "/>
</g>
</svg>
