<svg width="650" height="650" xmlns="http://www.w3.org/2000/svg" preserveAspectRatio="xMidYMid meet">
 <metadata>Created by potrace 1.15, written by Peter Selinger 2001-2017</metadata>

 <g>
  <title>background</title>
  <rect fill="#018404" id="canvas_background" height="652" width="652" y="-1" x="-1"/>
 </g>
 <g>
  <title>Layer 1</title>
  <g stroke="null" id="svg_1" fill="#000000" transform="translate(0,512) scale(0.10000000149011612,-0.10000000149011612) ">
   <path stroke="null" fill="#ffffff" id="svg_2" d="m2195,3510c-434,-160 -801,-295 -813,-302c-18,-10 -579,-762 -699,-937c-41,-60 -26,-157 30,-194c13,-8 122,-41 243,-72c120,-31 254,-65 297,-77l77,-20l0,-727c0,-701 1,-727 20,-758c10,-17 27,-36 38,-42c35,-19 2149,-661 2176,-661c35,0 6,-16 841,447c402,223 744,418 760,434l30,29l3,738l3,737l271,130c298,142 308,150 308,233c0,24 -5,53 -12,65c-6,12 -157,230 -336,485c-325,464 -348,492 -405,492c-13,0 -468,65 -1010,145c-543,80 -998,145 -1010,145c-12,-1 -377,-131 -812,-290zm1600,-96c396,-57 724,-106 728,-107c14,-4 -966,-457 -989,-457c-33,-1 -1574,285 -1561,289c6,2 248,91 535,196c288,106 533,190 545,188c12,-2 346,-51 742,-109zm1417,-555l236,-336l-671,-322c-369,-177 -674,-318 -679,-313c-9,9 -357,746 -354,749c11,12 1223,569 1227,564c3,-3 112,-157 241,-342zm-2785,-84c493,-91 898,-167 900,-168c5,-5 -527,-797 -535,-796c-32,2 -1762,456 -1763,462c-3,14 475,666 488,666c7,1 416,-73 910,-164zm999,-2732c-2,-3 -415,121 -918,275l-913,279l-3,622c-2,590 -1,622 15,617c10,-2 292,-75 627,-161c640,-165 663,-169 708,-128c11,10 124,172 252,361l231,343l3,-1102c1,-606 0,-1104 -2,-1106zm398,1782c116,-247 126,-260 209,-260c47,1 95,21 462,199c226,109 416,200 423,203c10,4 12,-116 10,-597l-3,-602l-610,-339c-335,-186 -613,-339 -617,-339c-5,0 -8,453 -7,1008c0,888 2,1003 15,977c8,-16 61,-129 118,-250z"/>
  </g>
 </g>
</svg>